<?xml version="1.0" encoding="utf-8"?>
<!-- Generator: Adobe Illustrator 16.0.0, SVG Export Plug-In . SVG Version: 6.00 Build 0)  -->
<!DOCTYPE svg PUBLIC "-//W3C//DTD SVG 1.1//EN" "http://www.w3.org/Graphics/SVG/1.1/DTD/svg11.dtd">
<svg version="1.1" id="Layer_1" xmlns="http://www.w3.org/2000/svg" xmlns:xlink="http://www.w3.org/1999/xlink" x="0px" y="0px"
	 width="208px" height="60px" viewBox="0 0 208 60" enable-background="new 0 0 208 60" xml:space="preserve">
<g>
	<g>
		<path fill="#4E4E53" d="M26.848,16.69v13.474H21.36V17.628c0-1.947-0.729-2.465-1.562-2.465c-1.182,0-2.015,0.868-2.813,2.395
			v12.606h-5.487V17.628c0-1.947-0.729-2.465-1.562-2.465c-1.145,0-2.013,0.868-2.813,2.395v12.606H1.637v-18.44h4.792l0.382,2.153
			c1.424-1.806,3.09-2.744,5.349-2.744c2.048,0,3.612,1.042,4.339,2.917c1.459-1.909,3.159-2.917,5.522-2.917
			C24.869,11.133,26.848,13.183,26.848,16.69z"/>
		<path fill="#4E4E53" d="M47.992,20.961c0,5.904-3.402,9.791-9.028,9.791c-5.59,0-9.029-3.608-9.029-9.826
			c0-5.902,3.404-9.792,9.029-9.792C44.59,11.133,47.992,14.745,47.992,20.961z M35.63,20.926c0,4.098,1.112,5.799,3.334,5.799
			c2.221,0,3.333-1.771,3.333-5.764c0-4.097-1.112-5.798-3.333-5.798C36.742,15.163,35.63,16.934,35.63,20.926z"/>
		<path fill="#4E4E53" d="M64.243,15.58L55.91,25.997h8.508l-0.488,4.167H49.554v-3.89l8.369-10.418h-7.639v-4.131h13.959V15.58z"/>
		<path fill="#4E4E53" d="M73.167,5.126c0,1.772-1.353,3.125-3.263,3.125c-1.911,0-3.23-1.353-3.23-3.125
			c0-1.77,1.319-3.124,3.23-3.124C71.813,2.002,73.167,3.357,73.167,5.126z M72.682,30.164h-5.487v-18.44h5.487V30.164z"/>
		<path fill="#4E4E53" d="M76.813,25.476V4.397L82.3,3.807v21.461c0,0.764,0.276,1.146,0.936,1.146c0.38,0,0.661-0.071,0.902-0.174
			l1.077,3.889c-0.833,0.347-2.014,0.624-3.334,0.624C78.688,30.752,76.813,28.843,76.813,25.476z"/>
		<path fill="#4E4E53" d="M87.124,25.476V4.397l5.487-0.591v21.461c0,0.764,0.277,1.146,0.936,1.146
			c0.382,0,0.661-0.071,0.903-0.174l1.077,3.889c-0.834,0.347-2.013,0.624-3.332,0.624C88.998,30.752,87.124,28.843,87.124,25.476z"
			/>
		<path fill="#4E4E53" d="M113.514,27.072l-1.143,3.575c-2.157-0.173-3.58-0.832-4.448-2.638c-1.319,2.015-3.368,2.742-5.554,2.742
			c-3.683,0-6.008-2.395-6.008-5.763c0-4.028,3.054-6.216,8.647-6.216h1.873v-0.798c0-2.188-0.867-2.848-3.124-2.848
			c-1.18,0-2.986,0.349-4.828,0.974l-1.249-3.611c2.327-0.87,4.862-1.356,6.945-1.356c5.347,0,7.64,2.257,7.64,6.529v7.152
			C112.265,26.239,112.646,26.76,113.514,27.072z M106.881,25.094v-3.3h-1.353c-2.503,0-3.717,0.868-3.717,2.71
			c0,1.458,0.8,2.325,2.153,2.325C105.214,26.83,106.224,26.168,106.881,25.094z"/>
		<path fill="#4E4E53" d="M139.174,13.391l-2.36,3.265c-1.18-0.903-2.257-1.318-3.507-1.318c-2.363,0-3.715,1.597-3.715,5.728
			c0,4.098,1.456,5.348,3.645,5.348c1.32,0,2.223-0.417,3.541-1.25l2.396,3.401c-1.701,1.356-3.682,2.188-6.216,2.188
			c-5.658,0-9.132-3.819-9.132-9.652c0-5.869,3.507-9.967,9.028-9.967C135.424,11.133,137.404,11.897,139.174,13.391z"/>
		<path fill="#4E4E53" d="M141.325,25.476V4.397l5.487-0.591v21.461c0,0.764,0.277,1.146,0.938,1.146
			c0.381,0,0.66-0.071,0.904-0.174l1.074,3.889c-0.833,0.347-2.014,0.624-3.333,0.624C143.202,30.752,141.325,28.843,141.325,25.476
			z"/>
		<path fill="#4E4E53" d="M167.37,30.164h-4.759l-0.244-2.328c-1.353,1.946-3.158,2.916-5.592,2.916
			c-3.435,0-5.138-2.221-5.138-5.798v-13.23h5.486V24.26c0,1.875,0.627,2.432,1.774,2.432c1.144,0,2.183-0.765,2.984-2.154V11.724
			h5.487V30.164z"/>
		<path fill="#4E4E53" d="M188.967,20.961c0,5.695-2.746,9.791-7.327,9.791c-2.047,0-3.717-0.867-4.825-2.36l-0.282,1.772h-4.857
			V4.397l5.484-0.591V13.6c1.077-1.494,2.953-2.466,4.86-2.466C186.569,11.133,188.967,14.78,188.967,20.961z M183.271,20.961
			c0-4.688-1.251-5.798-2.949-5.798c-1.318,0-2.363,0.797-3.162,2.151v7.64c0.697,1.147,1.702,1.806,2.918,1.806
			C181.953,26.76,183.271,25.268,183.271,20.961z"/>
		<path fill="#4E4E53" d="M205.67,13.391l-2.016,3.09c-1.425-0.901-2.952-1.422-4.549-1.422c-1.495,0-2.224,0.554-2.224,1.389
			c0,0.971,0.487,1.388,3.785,2.362c3.644,1.041,5.696,2.568,5.696,5.867c0,3.819-3.611,6.075-8.195,6.075
			c-3.197,0-5.902-1.11-7.712-2.742l2.675-2.986c1.391,1.077,3.092,1.806,4.897,1.806c1.669,0,2.674-0.625,2.674-1.736
			c0-1.25-0.558-1.632-3.888-2.569c-3.646-1.042-5.452-2.918-5.452-5.765c0-3.16,2.883-5.626,7.534-5.626
			C201.57,11.133,203.966,12.001,205.67,13.391z"/>
	</g>
	<g>
		<path fill="#4E4E53" d="M3.383,53.531V36.197l4.513-0.486v17.646c0,0.629,0.228,0.943,0.771,0.943
			c0.313,0,0.542-0.057,0.742-0.143l0.886,3.197c-0.686,0.289-1.656,0.514-2.741,0.514C4.927,57.869,3.383,56.301,3.383,53.531z"/>
		<path fill="#4E4E53" d="M24.859,51.131h-9.366c0.286,2.713,1.569,3.455,3.426,3.455c1.228,0,2.314-0.428,3.627-1.342l1.855,2.516
			c-1.513,1.199-3.455,2.109-5.911,2.109c-5.055,0-7.624-3.254-7.624-7.994c0-4.539,2.484-8.141,7.081-8.141
			c4.342,0,6.997,2.857,6.997,7.771C24.945,49.988,24.914,50.674,24.859,51.131z M20.519,48.219
			c-0.029-2.057-0.658-3.486-2.456-3.486c-1.514,0-2.371,0.943-2.599,3.686h5.055V48.219z"/>
		<path fill="#4E4E53" d="M40.623,54.842l-0.942,2.943c-1.771-0.141-2.942-0.684-3.655-2.168c-1.086,1.652-2.77,2.252-4.57,2.252
			c-3.026,0-4.941-1.969-4.941-4.738c0-3.313,2.515-5.115,7.112-5.115h1.542v-0.654c0-1.801-0.713-2.342-2.569-2.342
			c-0.971,0-2.456,0.287-3.969,0.801L27.6,42.85c1.915-0.713,3.998-1.115,5.712-1.115c4.397,0,6.283,1.855,6.283,5.371v5.885
			C39.595,54.158,39.908,54.586,40.623,54.842z M30.398,39.225l-2.256-1.088c0.714-1.826,1.971-3.367,3.684-3.367
			c1.742,0,2.371,1.283,3.313,1.283c0.627,0,1.028-0.428,1.485-1.256l2.256,1.113c-0.743,1.912-2.028,3.342-3.713,3.342
			c-1.655,0-2.313-1.285-3.254-1.285C31.228,37.967,30.856,38.424,30.398,39.225z M35.167,53.213V50.5h-1.113
			c-2.056,0-3.056,0.717-3.056,2.23c0,1.201,0.656,1.912,1.771,1.912C33.798,54.643,34.625,54.098,35.167,53.213z"/>
		<path fill="#4E4E53" d="M57.186,49.818c0,4.852-2.799,8.051-7.425,8.051c-4.596,0-7.425-2.971-7.425-8.08
			c0-4.855,2.798-8.055,7.425-8.055S57.186,44.707,57.186,49.818z M47.018,49.789c0,3.367,0.915,4.768,2.742,4.768
			s2.742-1.453,2.742-4.738c0-3.369-0.915-4.771-2.742-4.771S47.018,46.504,47.018,49.789z"/>
	</g>
</g>
</svg>
