<?xml version="1.0" standalone="no"?>
<!DOCTYPE svg PUBLIC "-//W3C//DTD SVG 20010904//EN"
 "http://www.w3.org/TR/2001/REC-SVG-20010904/DTD/svg10.dtd">
<svg version="1.0" xmlns="http://www.w3.org/2000/svg"
 width="214.000000pt" height="214.000000pt" viewBox="0 0 214.000000 214.000000"
 preserveAspectRatio="xMidYMid meet">
<metadata>
Created by potrace 1.11, written by Peter Selinger 2001-2013
</metadata>
<g transform="translate(0.000000,214.000000) scale(0.100000,-0.100000)"
fill="#000000" stroke="none">
<path d="M90 1935 l0 -105 -45 0 -45 0 0 -225 0 -225 50 0 50 0 0 -105 0 -105
55 0 55 0 0 -50 0 -50 110 0 110 0 0 -60 0 -60 50 0 50 0 0 -45 0 -45 -50 0
-50 0 0 -55 0 -55 -55 0 -55 0 0 -50 0 -50 -55 0 -55 0 0 -110 0 -110 55 0 55
0 0 -55 0 -55 55 0 55 0 0 -55 0 -55 -55 0 -55 0 0 -55 0 -55 110 0 110 0 0
55 0 55 160 0 160 0 0 55 0 55 50 0 50 0 0 55 0 55 110 0 110 0 0 -55 0 -55
50 0 50 0 0 -55 0 -55 160 0 160 0 0 -55 0 -55 110 0 110 0 0 55 0 55 -55 0
-55 0 0 55 0 55 55 0 55 0 0 55 0 55 55 0 55 0 0 110 0 110 -65 0 -65 0 0 50
0 50 -50 0 -50 0 0 55 0 55 -45 0 -45 0 0 45 0 45 40 0 40 0 0 60 0 60 110 0
110 0 0 50 0 50 54 0 54 0 7 105 7 105 54 0 54 0 0 225 0 225 -45 0 -45 0 0
105 0 105 -70 0 -70 0 0 -50 0 -50 -155 0 -155 0 0 -55 0 -55 -105 0 -105 0 0
-60 0 -60 -50 0 -50 0 0 -50 0 -50 -60 0 -60 0 0 -55 0 -55 -100 0 -100 0 0
60 0 60 -65 0 -65 0 0 45 0 45 -45 0 -45 0 0 60 0 60 -105 0 -105 0 0 55 0 55
-155 0 -155 0 0 50 0 50 -70 0 -70 0 0 -105z m550 -545 l0 -110 -45 0 -45 0 0
60 0 60 -55 0 -55 0 0 50 0 50 100 0 100 0 0 -110z m1060 55 l0 -45 -60 0 -60
0 0 -60 0 -60 -40 0 -40 0 0 105 0 105 100 0 100 0 0 -45z m-950 -850 l0 -55
-55 0 -55 0 0 55 0 55 55 0 55 0 0 -55z m750 0 l0 -55 -55 0 -55 0 0 55 0 55
55 0 55 0 0 -55z"/>
<path d="M750 1980 l0 -50 55 0 55 0 0 50 0 50 -55 0 -55 0 0 -50z"/>
<path d="M1280 1980 l0 -50 55 0 55 0 0 50 0 50 -55 0 -55 0 0 -50z"/>
<path d="M850 1870 l0 -50 55 0 55 0 0 50 0 50 -55 0 -55 0 0 -50z"/>
<path d="M1180 1860 l0 -50 55 0 55 0 0 50 0 50 -55 0 -55 0 0 -50z"/>
<path d="M970 1770 l0 -50 100 0 100 0 0 50 0 50 -100 0 -100 0 0 -50z"/>
</g>
</svg>
